<?xml version="1.0" encoding="UTF-8"?>
<svg version="1.1" xmlns="http://www.w3.org/2000/svg" width="500" height="500">
<path d="M0 0 C-1.0415625 0.51046875 -2.083125 1.0209375 -3.15625 1.546875 C-34.22490448 17.15245224 -54.08777922 40.41337781 -66 73 C-65.08528931 73.17740723 -65.08528931 73.17740723 -64.15209961 73.35839844 C-63.34780518 73.5237207 -62.54351074 73.68904297 -61.71484375 73.859375 C-60.91941162 74.01889648 -60.12397949 74.17841797 -59.30444336 74.34277344 C-55.49915445 75.42804071 -53.70235533 77.09991135 -51 80 C-48.59374227 84.70789555 -48.61047108 88.99169792 -50 94 C-52.11206335 97.85997784 -54.20060721 100.72036432 -58 103 C-58.66 103 -59.32 103 -60 103 C-57.69 109.93 -55.38 116.86 -53 124 C-56.96 124 -60.92 124 -65 124 C-68.875 114.375 -68.875 114.375 -70 111 C-69.19976434 136.96764715 -58.55489646 162.80585174 -41 182 C-40.23042969 182.85078125 -39.46085937 183.7015625 -38.66796875 184.578125 C-18.31693128 206.01411277 10.91423307 217.25592639 40.05078125 219.015625 C48.40282717 218.98258031 56.71181135 217.9692886 65 217 C65 217.66 65 218.32 65 219 C62.41928574 219.8011222 59.83588151 220.59086557 57.25 221.375 C56.53972656 221.59671875 55.82945312 221.8184375 55.09765625 222.046875 C26.845169 230.54762338 -4.68722193 227.42677414 -30.89453125 214.08203125 C-38.8035066 209.82384577 -46.00226195 204.60840612 -53 199 C-53.72832031 198.42636719 -54.45664063 197.85273438 -55.20703125 197.26171875 C-75.88571713 180.17223279 -89.30545132 151.87647154 -92.71875 125.5546875 C-95.22439845 93.8860751 -87.55590855 62.914786 -66.875 38.27734375 C-55.63494221 25.31835342 -18.89841192 -9.44920596 0 0 Z M-69 83 C-69.33820166 84.5823006 -69.67035939 86.16589375 -70 87.75 C-70.185625 88.63171875 -70.37125 89.5134375 -70.5625 90.421875 C-71.11153675 93.22143965 -71.11153675 93.22143965 -71 97 C-66.08791382 96.75992103 -66.08791382 96.75992103 -62.125 94.1875 C-60.5372443 91.10019725 -59.71140379 89.26260843 -60.5 85.8125 C-62.00937227 83.60414056 -62.00937227 83.60414056 -65.625 83.25 C-66.73875 83.1675 -67.8525 83.085 -69 83 Z " fill="#3F5965" transform="translate(191,150)"/>
<path d="M0 0 C2.43082454 2.18821779 4.759121 4.41077073 6.99609375 6.796875 C2.95091733 5.58332207 -0.67708502 4.00983522 -4.40551758 2.0300293 C-32.33300526 -12.76811863 -64.90697288 -15.13006572 -95.09521484 -5.94604492 C-110.64093412 -0.87120268 -124.35825266 6.41898299 -137.00390625 16.796875 C-137.72835937 17.36921875 -138.4528125 17.9415625 -139.19921875 18.53125 C-144.95308615 23.26972903 -149.49304992 28.890352 -154.00390625 34.796875 C-154.74769531 35.76367188 -155.49148437 36.73046875 -156.2578125 37.7265625 C-175.18548083 63.59986216 -182.70933357 95.76040916 -178.28344727 127.4699707 C-173.92081211 153.16312037 -162.20658499 177.00692739 -143.00390625 194.796875 C-143.33390625 195.456875 -143.66390625 196.116875 -144.00390625 196.796875 C-171.49512246 178.41517422 -189.71137475 152.26266428 -197.00390625 119.796875 C-197.23078125 118.80945313 -197.45765625 117.82203125 -197.69140625 116.8046875 C-200.85468097 100.2414296 -200.11784879 82.12712132 -196.00390625 65.796875 C-195.75447266 64.80083252 -195.75447266 64.80083252 -195.5 63.78466797 C-187.36735074 32.58692177 -166.44536428 5.62412753 -139.00244141 -11.05712891 C-96.05298458 -35.68512187 -38.18720279 -32.19831601 0 0 Z " fill="#289DB9" transform="translate(256.00390625,152.203125)"/>
<path d="M0 0 C3.16949528 3.11753634 6.21700486 6.30532157 9.1965332 9.60424805 C32.37603386 35.19013538 63.3434306 52.10289746 98.16796875 54.875 C134.30763529 56.47013011 166.1765686 46.67308863 195 25 C195 28.90207464 193.36834308 30.04577986 190.73486328 32.73388672 C190.1211084 33.3373291 189.50735352 33.94077148 188.875 34.5625 C187.92536377 35.49860107 187.92536377 35.49860107 186.95654297 36.45361328 C164.88887328 57.73451782 135.90646603 68.43749335 105.4375 69.375 C77.98202019 68.49161905 52.24420192 59.4589781 31 42 C30.08734375 41.26394531 29.1746875 40.52789062 28.234375 39.76953125 C16.26256996 29.55929181 6.93349563 16.0709176 0 2 C0 1.34 0 0.68 0 0 Z " fill="#289DB9" transform="translate(142,285)"/>
<path d="M0 0 C0.66 0.33 1.32 0.66 2 1 C1.67 3.97 1.34 6.94 1 10 C-0.093125 10.04125 -1.18625 10.0825 -2.3125 10.125 C-3.529375 10.41375 -4.74625 10.7025 -6 11 C-6.99 12.98 -7.98 14.96 -9 17 C-3.72 17 1.56 17 7 17 C7.9375 24.875 7.9375 24.875 8.22631836 27.35107422 C8.65816901 31.2998597 8.65816901 31.2998597 10 35 C12.64 29.06 15.28 23.12 18 17 C22.29 17 26.58 17 31 17 C30.59652344 17.80695313 30.19304687 18.61390625 29.77734375 19.4453125 C29.49366943 20.01330566 29.20999512 20.58129883 28.91772461 21.16650391 C28.24743005 22.50575744 27.57496404 23.84392579 26.90063477 25.18115234 C24.67016237 29.61559461 22.48025597 34.06693123 20.33226013 38.54177856 C19.03820957 41.23120074 17.73057563 43.91391651 16.42166138 46.59613037 C15.76985002 47.93985336 15.12382453 49.28639963 14.4838562 50.63580322 C10.97492241 58.02582873 7.96791252 64.34630963 1 69 C-3.08992812 70.20292004 -4.8030507 70.04923732 -9 69 C-9 66.03 -9 63.06 -9 60 C-7.88625 59.731875 -6.7725 59.46375 -5.625 59.1875 C-1.78159049 58.34190981 -1.78159049 58.34190981 0 55 C0.416369 48.39757729 -0.54941031 42.02566976 -1.5 35.5 C-1.64308594 34.48679688 -1.78617187 33.47359375 -1.93359375 32.4296875 C-2.28415582 29.95238218 -2.63972847 27.47590863 -3 25 C-5.31 25.33 -7.62 25.66 -10 26 C-11.65 35.24 -13.3 44.48 -15 54 C-18.63 54 -22.26 54 -26 54 C-25.5469926 50.66586557 -25.08776288 47.33278268 -24.625 44 C-24.49867188 43.06542969 -24.37234375 42.13085938 -24.2421875 41.16796875 C-23.47210623 35.66188769 -22.45555432 30.3665655 -21 25 C-22.65 25 -24.3 25 -26 25 C-25.125 17.125 -25.125 17.125 -24 16 C-22.33382885 15.95936168 -20.66611905 15.957279 -19 16 C-19.0825 15.13375 -19.165 14.2675 -19.25 13.375 C-18.88113208 8.39528301 -16.63817147 5.43960523 -12.9375 2.1875 C-8.6178161 -0.46004819 -4.90219959 -0.15562538 0 0 Z " fill="#3F5965" transform="translate(339,220)"/>
<path d="M0 0 C1.21816406 0.03480469 1.21816406 0.03480469 2.4609375 0.0703125 C3.68683594 0.09738281 3.68683594 0.09738281 4.9375 0.125 C5.87722656 0.15980469 5.87722656 0.15980469 6.8359375 0.1953125 C6.8359375 0.8553125 6.8359375 1.5153125 6.8359375 2.1953125 C7.40441406 1.87175781 7.97289062 1.54820312 8.55859375 1.21484375 C12.24394519 -0.43503057 15.87044771 -0.30925699 19.8359375 0.1953125 C21.5188767 1.16767737 23.19037184 2.16095694 24.8359375 3.1953125 C27.00260417 2.52864583 27.00260417 2.52864583 28.8359375 1.1953125 C32.8933634 -0.1571628 36.59816672 -0.48124389 40.8359375 0.1953125 C44.11769068 2.72499724 45.52837527 4.27262581 46.8359375 8.1953125 C47.19909898 14.91379986 46.11440676 21.11292347 44.8359375 27.6953125 C44.54976563 29.21511719 44.54976563 29.21511719 44.2578125 30.765625 C43.79030526 33.24341339 43.31401726 35.7195423 42.8359375 38.1953125 C39.2059375 38.1953125 35.5759375 38.1953125 31.8359375 38.1953125 C32.0525 36.844375 32.2690625 35.4934375 32.4921875 34.1015625 C32.77375527 32.29952879 33.05498744 30.49744262 33.3359375 28.6953125 C33.47902344 27.8084375 33.62210937 26.9215625 33.76953125 26.0078125 C34.59459361 20.66455151 34.98750857 15.60134736 34.8359375 10.1953125 C32.5259375 10.5253125 30.2159375 10.8553125 27.8359375 11.1953125 C25.48759806 20.13898825 23.58423444 29.11904755 21.8359375 38.1953125 C18.2059375 38.1953125 14.5759375 38.1953125 10.8359375 38.1953125 C11.0525 36.844375 11.2690625 35.4934375 11.4921875 34.1015625 C11.77375527 32.29952879 12.05498744 30.49744262 12.3359375 28.6953125 C12.47902344 27.8084375 12.62210937 26.9215625 12.76953125 26.0078125 C13.59459361 20.66455151 13.98750857 15.60134736 13.8359375 10.1953125 C11.5259375 10.5253125 9.2159375 10.8553125 6.8359375 11.1953125 C4.73273262 20.17495321 2.74336785 29.17221999 0.8359375 38.1953125 C-2.7940625 38.1953125 -6.4240625 38.1953125 -10.1640625 38.1953125 C-9.35653671 33.10326603 -8.5384472 28.01307415 -7.71044922 22.92431641 C-7.43018037 21.19236534 -7.15282212 19.4599407 -6.87841797 17.72705078 C-6.48385695 15.23860997 -6.07891511 12.75205103 -5.671875 10.265625 C-5.5509549 9.48849152 -5.43003479 8.71135803 -5.30545044 7.91067505 C-4.04923174 0.36545413 -4.04923174 0.36545413 0 0 Z " fill="#3F5965" transform="translate(249.1640625,235.8046875)"/>
<path d="M0 0 C3.63 0 7.26 0 11 0 C13.57017631 10.71565815 15.66852942 21.48214251 17.6875 32.3125 C18.01082143 34.03585351 18.33438753 35.75916115 18.65820312 37.48242188 C19.4416175 41.65442548 20.22174002 45.82703194 21 50 C17.04 50 13.08 50 9 50 C8.67 46.7 8.34 43.4 8 40 C2.39 40 -3.22 40 -9 40 C-9.66 41.98 -10.32 43.96 -11 46 C-11.66 47.32 -12.32 48.64 -13 50 C-17.29 50 -21.58 50 -26 50 C-20.3526272 38.56504377 -14.49061114 27.25846838 -8.5 16 C-7.66909542 14.43498895 -6.83836549 12.86988516 -6.0078125 11.3046875 C-4.00720854 7.53539232 -2.00428574 3.76733862 0 0 Z M3 16 C-0.465 23.425 -0.465 23.425 -4 31 C-0.7 31 2.6 31 6 31 C5.8858134 29.06183265 5.75826577 27.12444901 5.625 25.1875 C5.55539062 24.10855469 5.48578125 23.02960938 5.4140625 21.91796875 C5.18804267 18.81373814 5.18804267 18.81373814 3 16 Z " fill="#289DB9" transform="translate(405,223)"/>
<path d="M0 0 C3.85921335 3.66625269 5.3856653 6.24329305 5.67578125 11.65234375 C5.68633955 14.8937416 5.59918053 18.13510267 5.5 21.375 C-2.09 21.375 -9.68 21.375 -17.5 21.375 C-16.16436384 26.31963635 -16.16436384 26.31963635 -13.5 27.375 C-8.63241177 27.81750802 -5.71610247 26.78420141 -1.5 24.375 C0.5625 26.625 0.5625 26.625 2.5 29.375 C2.2931044 31.87699326 1.95047136 32.98475209 0.0390625 34.640625 C-5.7390555 37.61222854 -11.05606123 38.35195243 -17.5 37.375 C-22.32833008 35.00472887 -26.21159336 31.5960166 -28.25 26.5 C-29.17970291 18.59752522 -28.17600228 10.40646102 -23.1875 3.9375 C-16.58912428 -2.35397452 -8.36538905 -3.88393063 0 0 Z M-16.5 12.375 C-16.5 13.035 -16.5 13.695 -16.5 14.375 C-12.54 14.375 -8.58 14.375 -4.5 14.375 C-4.5 12.725 -4.5 11.075 -4.5 9.375 C-6.31417709 7.18526503 -6.31417709 7.18526503 -8.8125 6.9375 C-12.63217001 7.55930675 -14.07500395 9.46500474 -16.5 12.375 Z " fill="#3F5965" transform="translate(168.5,237.625)"/>
<path d="M0 0 C1.37478516 0.01740234 1.37478516 0.01740234 2.77734375 0.03515625 C3.69644531 0.04417969 4.61554688 0.05320313 5.5625 0.0625 C6.27277344 0.07410156 6.98304688 0.08570313 7.71484375 0.09765625 C7.30426793 5.1974401 6.83529907 10.2823964 6.16796875 15.35546875 C6.07306152 16.07798828 5.9781543 16.80050781 5.88037109 17.54492188 C5.68764083 18.9895891 5.49009574 20.43362265 5.28759766 21.87695312 C5.056139 23.61226066 4.88022337 25.35480946 4.71484375 27.09765625 C5.04484375 27.42765625 5.37484375 27.75765625 5.71484375 28.09765625 C8.05429111 27.8103557 10.38875805 27.47828846 12.71484375 27.09765625 C14.81804863 18.11801554 16.8074134 9.12074876 18.71484375 0.09765625 C22.34484375 0.09765625 25.97484375 0.09765625 29.71484375 0.09765625 C28.88380604 5.20715371 28.04752584 10.31575419 27.20629883 15.42358398 C26.92066205 17.16260309 26.63647876 18.90186157 26.35375977 20.64135742 C25.94796328 23.13654384 25.53700753 25.63083264 25.125 28.125 C24.99891861 28.90729477 24.87283722 29.68958954 24.74293518 30.49559021 C23.82871546 35.98378454 23.82871546 35.98378454 22.71484375 37.09765625 C19.63925512 37.17012962 16.57568972 37.09381064 13.5 37.03515625 C10.75755066 36.89837163 10.75755066 36.89837163 8.71484375 38.09765625 C4.08270882 38.6527844 0.73312248 38.73408045 -3.28515625 36.22265625 C-7.11219662 32.15642586 -6.54584217 28.50402503 -6.515625 23.11328125 C-5.60415682 0.23949388 -5.60415682 0.23949388 0 0 Z " fill="#3F5965" transform="translate(213.28515625,236.90234375)"/>
<path d="M0 0 C3.80505368 2.66353757 5.21846856 4.41912411 6.1875 9 C6.3421875 10.36125 6.3421875 10.36125 6.5 11.75 C2.87 11.75 -0.76 11.75 -4.5 11.75 C-5.16 10.43 -5.82 9.11 -6.5 7.75 C-8.15 7.75 -9.8 7.75 -11.5 7.75 C-12.16 9.07 -12.82 10.39 -13.5 11.75 C-12.60796875 12.05292969 -11.7159375 12.35585937 -10.796875 12.66796875 C-9.62640625 13.08691406 -8.4559375 13.50585938 -7.25 13.9375 C-6.08984375 14.34355469 -4.9296875 14.74960938 -3.734375 15.16796875 C-0.16008997 16.91626034 1.39821397 18.40139174 3.5 21.75 C4.04990665 25.59934654 4.39050939 28.08941897 2.546875 31.52734375 C-0.06186133 34.90384109 -2.51232313 36.4785668 -6.5 37.75 C-12.1081545 38.3991269 -16.94831795 38.51222978 -22.0625 36 C-26.14788732 32.22887324 -26.14788732 32.22887324 -27.5 29.75 C-27.5 28.1 -27.5 26.45 -27.5 24.75 C-24.2 24.75 -20.9 24.75 -17.5 24.75 C-16.84 26.07 -16.18 27.39 -15.5 28.75 C-13.52 28.75 -11.54 28.75 -9.5 28.75 C-8.84 27.43 -8.18 26.11 -7.5 24.75 C-8.31984375 24.42386719 -9.1396875 24.09773438 -9.984375 23.76171875 C-11.06203125 23.32472656 -12.1396875 22.88773437 -13.25 22.4375 C-14.31734375 22.00824219 -15.3846875 21.57898438 -16.484375 21.13671875 C-19.22405224 19.87689308 -21.32805247 18.83060394 -23.5 16.75 C-25.13167987 12.28837536 -24.91420895 8.64469132 -22.9375 4.375 C-16.71502358 -2.32612845 -8.39918311 -2.99970825 0 0 Z " fill="#3F5965" transform="translate(200.5,237.25)"/>
<path d="M0 0 C3.63 0 7.26 0 11 0 C10.39910807 9.36640295 9.03849432 18.46384128 7.41601562 27.6940918 C6.99539876 30.08869521 6.58306248 32.48462052 6.171875 34.88085938 C5.9067247 36.41154064 5.64111683 37.94214273 5.375 39.47265625 C5.25205566 40.18511002 5.12911133 40.89756378 5.00244141 41.63160706 C4.49356221 44.51429802 3.92744033 47.21767902 3 50 C-0.63 50 -4.26 50 -8 50 C-7.39742455 43.35356695 -6.55109513 36.83988837 -5.37109375 30.2734375 C-5.21713638 29.39974518 -5.06317902 28.52605286 -4.90455627 27.62588501 C-4.41899549 24.87496467 -3.92834402 22.12498202 -3.4375 19.375 C-3.10447842 17.49354961 -2.77179315 15.61203965 -2.43945312 13.73046875 C-1.63018226 9.15294916 -0.81634923 4.57626231 0 0 Z " fill="#289DB9" transform="translate(435,223)"/>
<path d="M0 0 C3.63 0 7.26 0 11 0 C10.16896229 5.10949746 9.33268209 10.21809794 8.49145508 15.32592773 C8.2058183 17.06494684 7.92163501 18.80420532 7.63891602 20.54370117 C7.23311953 23.03888759 6.82216378 25.53317639 6.41015625 28.02734375 C6.28407486 28.80963852 6.15799347 29.59193329 6.02809143 30.39793396 C5.11387171 35.88612829 5.11387171 35.88612829 4 37 C0.66672158 37.1424478 -2.66453893 37.04222103 -6 37 C-5.41966807 29.2418784 -4.37375393 21.65519401 -3 14 C-2.82210938 12.97777344 -2.64421875 11.95554688 -2.4609375 10.90234375 C-1.13988095 3.41964286 -1.13988095 3.41964286 0 0 Z " fill="#3F5965" transform="translate(302,237)"/>
<path d="M0 0 C2.9375 0.75 2.9375 0.75 4.9375 2.75 C5.26704432 5.84771665 5.39084601 7.92331023 3.875 10.6875 C0.72183176 12.41665678 -1.68758255 11.6090699 -5.0625 10.75 C-7.0625 7.75 -7.0625 7.75 -6.875 4.6875 C-5.723712 0.52515108 -4.27834222 -0.34925243 0 0 Z " fill="#3F5965" transform="translate(371.0625,263.25)"/>
<path d="M0 0 C1.875 1.1875 1.875 1.1875 3 3 C3.42822025 5.85480169 3.40659584 7.34492892 1.875 9.8125 C-0.87155972 11.55198782 -2.81846974 11.39769128 -6 11 C-7.875 9.8125 -7.875 9.8125 -9 8 C-9.42822025 5.14519831 -9.40659584 3.65507108 -7.875 1.1875 C-5.12844028 -0.55198782 -3.18153026 -0.39769128 0 0 Z " fill="#3F5965" transform="translate(312,222)"/>
</svg>
